<svg width="70" height="30" xmlns="http://www.w3.org/2000/svg"><g fill="#F3F3F3" fill-rule="nonzero"><path d="M21.356 30A8.686 8.686 0 0 1 15 27.25c-2.412 2.573-6.18 3.43-9.496 2.159C2.19 28.138.004 24.999 0 21.5v-6.25C0 14.007 1.024 13 2.288 13c1.264 0 2.288 1.007 2.288 2.25v6.12c0 2.192 1.75 4.045 3.903 4.127h.165c2.22 0 4.03-1.75 4.068-3.932V15.25c0-1.243 1.024-2.25 2.288-2.25 1.264 0 2.288 1.007 2.288 2.25v6.325c.043 2.179 1.852 3.923 4.068 3.922h.165c2.154-.082 3.903-1.934 3.903-4.127v-6.12c0-1.243 1.024-2.25 2.288-2.25C28.976 13 30 14.007 30 15.25v6.25c0 4.694-3.87 8.5-8.644 8.5ZM50 8.644A8.712 8.712 0 0 1 47.25 15c2.573 2.412 3.43 6.18 2.159 9.496-1.271 3.315-4.41 5.5-7.909 5.504h-6.25C34.007 30 33 28.976 33 27.712c0-1.264 1.007-2.288 2.25-2.288h6.123c2.19 0 4.042-1.752 4.127-3.903v-.165c0-2.22-1.75-4.03-3.932-4.068H35.27c-1.243 0-2.25-1.024-2.25-2.288 0-1.264 1.007-2.288 2.25-2.288h6.332c2.18-.043 3.923-1.852 3.923-4.068v-.168c-.085-2.15-1.938-3.9-4.127-3.9H35.25c-1.243 0-2.25-1.024-2.25-2.288C33 1.024 34.007 0 35.25 0h6.25c2.254 0 4.416.91 6.01 2.532A8.719 8.719 0 0 1 50 8.644ZM67.75 30a2.25 2.25 0 0 1-2.25-2.25V21.5a4 4 0 0 0-4-4h-.148c-2.124.075-3.852 1.927-3.852 4.13v6.12a2.25 2.25 0 1 1-4.5 0V21.5a8.5 8.5 0 1 1 17 0v6.25A2.25 2.25 0 0 1 67.75 30Z"/></g></svg>