<svg width="52" height="19" xmlns="http://www.w3.org/2000/svg"><g fill="#F3F3F3" fill-rule="nonzero"><path d="M.313 11.566v.246c0 .922.113 1.776.34 2.561.226.785.554 1.463.984 2.033.422.57.94 1.018 1.552 1.342.614.324 1.307.486 2.08.486.711 0 1.336-.136 1.876-.41a4.3 4.3 0 0 0 1.406-1.148L8.715 18h2.941V0h-3.27v6.457a4.19 4.19 0 0 0-1.341-1.014c-.504-.238-1.088-.357-1.752-.357-.79 0-1.49.156-2.104.469a4.499 4.499 0 0 0-1.564 1.324c-.43.57-.756 1.254-.979 2.05-.222.798-.334 1.676-.334 2.637Zm3.257.246v-.246c0-.53.047-1.029.14-1.494a4.02 4.02 0 0 1 .446-1.224c.203-.344.467-.616.791-.815.324-.199.717-.299 1.178-.299.555 0 1.016.12 1.383.358s.66.572.879 1.002v5.133a2.58 2.58 0 0 1-.885.996c-.371.242-.838.363-1.4.363-.461 0-.852-.098-1.172-.293a2.293 2.293 0 0 1-.785-.809 3.637 3.637 0 0 1-.44-1.19 7.688 7.688 0 0 1-.135-1.482ZM15.922 5.32v2.66h3.61v7.372h-3.61V18h10.336v-2.648h-3.434V5.32h-6.902Zm3.375-3.246c0 .25.045.483.135.697.09.215.216.397.38.545.165.157.362.278.592.364.23.086.487.129.768.129.578 0 1.037-.163 1.377-.487.34-.324.51-.74.51-1.248s-.17-.924-.51-1.248C22.209.502 21.75.34 21.172.34c-.281 0-.537.043-.768.129-.23.086-.427.203-.591.351a1.625 1.625 0 0 0-.381.557c-.09.215-.135.447-.135.697ZM29.117 11.566v.246c0 .922.113 1.776.34 2.561.227.785.555 1.463.984 2.033.422.57.94 1.018 1.553 1.342.613.324 1.307.486 2.08.486.711 0 1.336-.136 1.875-.41a4.3 4.3 0 0 0 1.406-1.148L37.52 18h2.94V0h-3.269v6.457a4.19 4.19 0 0 0-1.341-1.014c-.504-.238-1.088-.357-1.752-.357-.79 0-1.49.156-2.104.469a4.499 4.499 0 0 0-1.564 1.324c-.43.57-.756 1.254-.979 2.05-.222.798-.334 1.676-.334 2.637Zm3.258.246v-.246c0-.53.047-1.029.14-1.494a4.02 4.02 0 0 1 .446-1.224c.203-.344.467-.616.791-.815.324-.199.717-.299 1.178-.299.554 0 1.015.12 1.383.358.367.238.66.572.878 1.002v5.133a2.58 2.58 0 0 1-.884.996c-.371.242-.838.363-1.4.363-.462 0-.852-.098-1.173-.293a2.293 2.293 0 0 1-.785-.809 3.637 3.637 0 0 1-.44-1.19 7.688 7.688 0 0 1-.134-1.482ZM47.316 16.113c0 .602.204 1.106.61 1.512.406.406.957.61 1.652.61.688 0 1.236-.202 1.647-.604.41-.402.615-.908.615-1.518s-.201-1.12-.604-1.535c-.402-.414-.955-.621-1.658-.621-.71 0-1.266.209-1.664.627-.398.418-.598.928-.598 1.53Zm0-9.68c0 .602.204 1.106.61 1.512.406.407.957.61 1.652.61.688 0 1.236-.201 1.647-.604.41-.402.615-.908.615-1.517 0-.61-.201-1.122-.604-1.536-.402-.414-.955-.62-1.658-.62-.71 0-1.266.208-1.664.626-.398.418-.598.928-.598 1.53Z"></path></g></svg>